<?xml version="1.0" standalone="no"?>
<!DOCTYPE svg PUBLIC "-//W3C//DTD SVG 20010904//EN"
 "http://www.w3.org/TR/2001/REC-SVG-20010904/DTD/svg10.dtd">
<svg version="1.0" xmlns="http://www.w3.org/2000/svg"
 width="300.000000pt" height="314.000000pt" viewBox="0 0 300.000000 314.000000"
 preserveAspectRatio="xMidYMid meet">
<metadata>
Created by potrace 1.10, written by Peter Selinger 2001-2011
</metadata>
<g transform="translate(0.000000,314.000000) scale(0.100000,-0.100000)"
fill="#000000" stroke="none">
<path d="M1162 3098 c-16 -16 -15 -33 2 -47 28 -24 16 -82 -30 -143 -44 -56
-44 -57 -45 -140 l-1 -83 -75 -65 c-42 -36 -79 -66 -82 -68 -3 -1 -5 37 -4 84
2 78 4 89 27 113 24 25 26 34 26 119 0 59 4 92 11 92 21 0 4 45 -19 48 -25 4
-41 -23 -23 -41 6 -6 11 -47 11 -101 0 -88 -1 -91 -32 -123 l-31 -32 2 -197
c3 -224 11 -213 -93 -118 l-66 61 0 68 c0 49 5 73 16 87 14 14 14 20 4 33 -7
8 -18 15 -25 15 -7 0 -18 -7 -25 -15 -10 -13 -10 -19 4 -33 12 -14 16 -38 16
-93 l0 -75 86 -75 c83 -71 86 -75 81 -110 -5 -36 -1 -40 164 -205 l169 -169 0
-163 0 -163 -125 113 -125 113 0 98 c0 57 5 105 12 116 15 24 4 51 -22 51 -27
0 -36 -25 -20 -55 28 -53 0 -40 -92 42 l-98 87 0 69 c0 55 4 73 18 83 13 10
15 17 6 31 -6 10 -19 19 -28 21 -21 4 -32 -26 -18 -49 7 -10 12 -52 12 -92 l0
-74 105 -94 105 -94 0 -70 0 -70 135 -123 135 -123 0 -130 c0 -108 2 -129 15
-129 13 0 15 41 15 307 l0 308 -162 162 -162 163 72 70 c66 64 72 74 72 110 0
22 6 49 12 60 10 16 10 23 -3 35 -21 21 -49 9 -49 -21 0 -13 5 -24 10 -24 6 0
10 -19 10 -42 -1 -39 -7 -50 -66 -112 -35 -38 -66 -67 -67 -65 -1 2 0 72 2
154 l3 150 89 75 89 75 0 85 c0 85 0 86 40 134 34 41 40 55 40 96 0 30 6 52
15 60 11 9 12 17 4 31 -11 22 -30 24 -47 7z"/>
<path d="M1450 2196 l0 -916 150 0 150 0 0 106 c0 187 48 325 170 494 121 167
187 340 197 515 6 126 -12 220 -66 330 -107 219 -293 348 -548 380 l-53 7 0
-916z m165 863 c109 -29 245 -115 325 -206 53 -61 127 -211 141 -288 18 -97 6
-276 -24 -367 -30 -90 -70 -173 -118 -244 -105 -155 -128 -193 -147 -234 -47
-106 -63 -179 -71 -310 l-6 -105 -115 0 -115 0 -3 888 -2 888 47 -6 c27 -3 66
-10 88 -16z"/>
<path d="M833 2863 c-15 -6 -18 -53 -3 -53 6 0 10 -8 10 -18 0 -10 14 -31 30
-47 37 -36 40 -21 3 17 -26 27 -26 28 -8 48 27 30 3 68 -32 53z"/>
<path d="M1182 2828 c-16 -16 -15 -37 3 -44 12 -5 15 -27 15 -106 l0 -101 -39
-43 -40 -42 1 -139 0 -138 132 -127 c72 -69 133 -124 136 -122 2 3 -53 62
-123 132 -125 125 -127 128 -127 172 0 43 4 49 80 125 l80 80 0 77 c0 45 4 78
10 78 14 0 13 33 -2 48 -7 7 -17 8 -30 1 -22 -12 -23 -32 -3 -49 10 -9 15 -31
15 -74 l0 -61 -75 -80 -75 -80 0 81 c0 81 0 82 35 113 l35 30 0 111 c0 60 4
110 9 110 17 0 20 29 5 45 -19 18 -26 19 -42 3z"/>
<path d="M1210 1195 l0 -35 253 2 252 3 3 33 3 32 -255 0 -256 0 0 -35z"/>
<path d="M1250 1080 l0 -30 210 0 210 0 0 30 0 30 -210 0 -210 0 0 -30z"/>
<path d="M1290 970 l0 -30 170 0 170 0 0 30 0 30 -170 0 -170 0 0 -30z"/>
<path d="M1282 751 c-8 -4 -12 -19 -10 -32 2 -19 9 -24 33 -24 33 0 45 25 25
50 -14 17 -29 19 -48 6z"/>
<path d="M241 618 c-25 -57 -57 -129 -72 -160 l-27 -58 33 0 c29 0 35 4 45 35
l12 35 84 0 85 0 15 -35 c12 -29 19 -35 44 -35 17 0 30 1 30 3 0 1 -31 72 -69
157 -69 152 -70 155 -103 158 -33 2 -33 2 -77 -100z m94 15 c3 -15 15 -45 26
-67 10 -22 19 -41 19 -43 0 -2 -27 -3 -61 -3 -41 0 -65 -5 -76 -15 -8 -9 -18
-13 -22 -10 -3 4 6 15 20 26 16 11 36 43 49 79 12 33 26 60 30 60 4 0 11 -12
15 -27z"/>
<path d="M1088 669 c4 -27 2 -30 -18 -27 -18 2 -24 -2 -25 -19 -1 -18 4 -23
22 -23 22 0 23 -3 23 -79 0 -98 16 -124 77 -124 51 0 63 7 56 34 -5 16 -11 19
-30 14 -41 -10 -53 10 -53 86 l0 69 35 0 c31 0 35 3 35 26 0 20 -4 25 -16 20
-9 -3 -24 -6 -35 -6 -10 0 -19 -6 -19 -14 0 -24 -26 -38 -40 -22 -14 18 -5 36
19 36 13 0 20 9 23 30 4 28 2 30 -27 30 -30 0 -31 -2 -27 -31z"/>
<path d="M1725 673 c4 -10 29 -84 57 -165 28 -82 56 -148 62 -148 7 0 35 66
62 146 l50 146 51 -143 c29 -85 55 -144 63 -144 7 0 34 62 66 150 56 160 61
179 42 173 -7 -3 -34 -69 -60 -149 -26 -79 -49 -137 -52 -129 -3 8 -23 67 -45
130 -52 152 -51 150 -65 150 -6 0 -33 -65 -60 -145 -28 -80 -51 -145 -52 -145
-1 0 -24 65 -51 145 -31 94 -52 145 -61 145 -9 0 -12 -6 -7 -17z"/>
<path d="M527 643 c-9 -15 2 -182 12 -202 6 -11 21 -25 32 -31 32 -18 97 -15
119 5 18 16 20 17 20 2 0 -12 9 -17 28 -17 l27 0 -1 123 0 122 -27 3 -27 3 0
-81 c0 -73 -3 -83 -25 -105 -29 -30 -58 -32 -85 -5 -17 17 -20 33 -20 105 0
83 0 85 -24 85 -14 0 -27 -3 -29 -7z"/>
<path d="M885 643 c-33 -8 -65 -44 -65 -73 0 -37 27 -58 90 -70 64 -12 78 -23
60 -45 -15 -18 -69 -20 -106 -3 -23 11 -28 10 -40 -7 -18 -25 -8 -34 52 -43
90 -14 154 16 154 73 0 32 -29 53 -90 65 -57 11 -76 26 -58 47 13 15 72 17 98
3 15 -8 21 -6 30 9 14 28 14 29 -27 40 -39 11 -64 12 -98 4z"/>
<path d="M1277 643 c-3 -5 -5 -61 -5 -125 l-1 -118 29 0 30 0 0 125 0 125 -24
0 c-14 0 -27 -3 -29 -7z"/>
<path d="M1410 525 l0 -125 28 0 27 0 0 79 c0 89 17 121 65 121 54 0 65 -20
65 -114 l0 -86 28 0 27 0 0 84 c0 47 -4 96 -10 111 -20 52 -117 69 -162 28
-17 -15 -18 -15 -18 5 0 17 -6 22 -25 22 l-25 0 0 -125z"/>
<path d="M2253 595 c-34 -14 -48 -43 -15 -30 76 31 125 24 142 -20 16 -42 13
-45 -54 -45 -101 0 -145 -51 -97 -111 25 -31 108 -34 140 -5 21 19 21 19 21
-2 0 -12 5 -22 10 -22 6 0 10 39 10 96 0 92 -1 97 -29 125 -33 33 -75 37 -128
14z m137 -138 c0 -77 -140 -107 -148 -32 -5 40 19 55 90 55 54 0 58 -2 58 -23z"/>
<path d="M2500 485 c0 -104 2 -125 15 -125 12 0 15 16 15 84 0 75 3 88 24 112
28 34 84 38 116 9 17 -16 20 -30 20 -112 0 -76 3 -93 15 -93 12 0 15 17 15 88
1 55 5 93 14 104 18 24 63 39 92 32 42 -11 54 -40 54 -136 0 -52 4 -88 10 -88
6 0 10 38 10 94 0 86 -2 98 -24 123 -34 39 -102 40 -143 1 l-28 -26 -18 23
c-23 32 -76 41 -115 21 -17 -9 -32 -21 -35 -28 -3 -7 -6 -1 -6 15 -1 17 -6 27
-16 27 -13 0 -15 -21 -15 -125z"/>
<path d="M760 100 l0 -70 40 0 c27 0 47 7 60 20 20 20 26 65 12 86 -12 19 -49
34 -81 34 l-31 0 0 -70z m94 34 c35 -35 1 -94 -54 -94 -30 0 -30 1 -30 55 l0
55 34 0 c19 0 42 -7 50 -16z"/>
<path d="M1560 148 c0 -20 -5 -23 -37 -23 -32 0 -39 -4 -47 -27 -14 -38 15
-69 61 -66 33 2 33 2 33 54 0 29 3 59 6 68 3 9 1 16 -5 16 -6 0 -11 -10 -11
-22z m-10 -43 c26 -31 -13 -82 -44 -56 -16 14 -22 52 -9 64 11 12 40 8 53 -8z"/>
<path d="M1242 140 c-7 -11 -8 -20 -3 -20 6 0 11 -19 13 -42 2 -34 7 -43 23
-46 18 -2 18 -2 3 8 -12 7 -18 23 -18 45 0 24 5 35 18 38 15 4 15 5 0 6 -9 0
-18 8 -20 16 -2 13 -6 12 -16 -5z"/>
<path d="M906 122 c-3 -6 8 -9 25 -8 18 0 34 -5 36 -11 3 -8 -4 -13 -19 -13
-33 0 -51 -14 -46 -36 2 -14 13 -19 41 -20 l38 -1 -3 46 c-3 44 -5 46 -35 49
-17 2 -34 -1 -37 -6z m64 -56 c0 -18 -39 -31 -52 -18 -15 15 0 32 28 32 14 0
24 -6 24 -14z"/>
<path d="M1021 75 c1 -27 3 -39 6 -25 9 56 14 69 31 73 9 3 5 4 -10 4 -27 -1
-28 -3 -27 -52z"/>
<path d="M1092 118 c-15 -15 -15 -61 0 -76 15 -15 48 -15 68 -1 11 8 8 9 -13
4 -28 -6 -57 8 -57 26 0 5 18 9 40 9 26 0 40 5 40 13 0 33 -53 50 -78 25z m58
-13 c11 -13 7 -15 -24 -15 -34 0 -44 8 -29 23 11 12 40 8 53 -8z"/>
<path d="M1321 116 c-16 -19 -10 -66 10 -79 44 -28 95 25 69 72 -13 25 -61 29
-79 7z m67 -12 c13 -23 3 -52 -20 -59 -22 -8 -48 11 -48 34 0 38 51 56 68 25z"/>
<path d="M1611 75 c1 -27 3 -39 6 -25 9 56 14 69 31 73 9 3 5 4 -10 4 -27 -1
-28 -3 -27 -52z"/>
<path d="M1682 118 c-7 -7 -12 -24 -12 -38 0 -14 5 -31 12 -38 15 -15 64 -16
73 -2 4 7 -2 9 -19 4 -26 -6 -56 9 -56 27 0 5 18 9 40 9 26 0 40 5 40 13 0 19
-21 37 -45 37 -12 0 -26 -5 -33 -12z m66 -15 c2 -9 -8 -13 -33 -13 -33 0 -36
2 -25 15 15 18 51 16 58 -2z"/>
<path d="M1786 122 c-3 -6 8 -9 25 -8 18 0 34 -5 36 -11 3 -8 -4 -13 -19 -13
-33 0 -51 -14 -46 -36 2 -14 13 -19 41 -20 l38 -1 -3 46 c-3 44 -5 46 -35 49
-17 2 -34 -1 -37 -6z m62 -54 c-7 -21 -36 -34 -49 -21 -6 6 -8 16 -5 22 10 15
59 14 54 -1z"/>
<path d="M1895 79 c0 -27 3 -49 7 -49 5 0 8 15 8 33 0 41 12 60 36 55 14 -2
20 -13 22 -46 2 -23 8 -42 13 -42 5 0 9 15 7 33 -2 40 7 57 32 57 19 0 23 -9
34 -70 2 -14 3 -2 2 25 l-1 50 -80 1 -80 1 0 -48z"/>
</g>
</svg>
